<svg xmlns="http://www.w3.org/2000/svg" xmlns:xlink="http://www.w3.org/1999/xlink" id="Layer_2" viewBox="0 0 218.12 124.06"><defs><style>.cls-1{fill:url(#radial-gradient);fill-rule:evenodd;}.cls-2{fill:url(#radial-gradient-7);}.cls-3{fill:#fff;}.cls-4{fill:url(#radial-gradient-5);}.cls-5{fill:url(#radial-gradient-4);}.cls-6{fill:url(#radial-gradient-6);}.cls-7{fill:url(#radial-gradient-3);}.cls-8{fill:none;stroke:url(#radial-gradient-2);stroke-linejoin:round;stroke-width:1.94px;}</style><radialGradient id="radial-gradient" cx="187.91" cy="203.36" fx="187.91" fy="203.36" r="1" gradientTransform="translate(-5056.64 4737.25) rotate(5.14) scale(25.41 -25.41)" gradientUnits="userSpaceOnUse"><stop offset="0" stop-color="#b88087"></stop><stop offset=".12" stop-color="#cf969d"></stop><stop offset=".25" stop-color="#c9979e"></stop><stop offset=".38" stop-color="#e2bdbf"></stop><stop offset=".53" stop-color="#f7dada"></stop><stop offset=".68" stop-color="#e2bdbf"></stop><stop offset=".81" stop-color="#c9979e"></stop><stop offset=".92" stop-color="#cf969d"></stop><stop offset="1" stop-color="#b88087"></stop></radialGradient><radialGradient id="radial-gradient-2" cx="185.98" cy="204.78" fx="185.98" fy="204.78" r="1" gradientTransform="translate(-4742.45 5413.78) scale(26.32 -26.32)" xlink:href="#radial-gradient"></radialGradient><radialGradient id="radial-gradient-3" cx="188.8" cy="213.74" fx="188.8" fy="213.74" r="1" gradientTransform="translate(-8024.26 9189.77) scale(42.75 -42.75)" xlink:href="#radial-gradient"></radialGradient><radialGradient id="radial-gradient-4" cx="177.28" cy="177.17" fx="177.28" fy="177.17" r="1" gradientTransform="translate(-2042.65 2197.62) scale(12.05 -12.05)" xlink:href="#radial-gradient"></radialGradient><radialGradient id="radial-gradient-5" cx="182.83" cy="194.76" fx="182.83" fy="194.76" r="1" gradientTransform="translate(-3243.04 3651.2) scale(18.41 -18.41)" xlink:href="#radial-gradient"></radialGradient><radialGradient id="radial-gradient-6" cx="188.03" cy="211.27" fx="188.03" fy="211.27" r="1" gradientTransform="translate(-6716.03 7779.16) scale(36.46 -36.46)" xlink:href="#radial-gradient"></radialGradient><radialGradient id="radial-gradient-7" cx="179.78" cy="185.09" fx="179.78" fy="185.09" r="1" gradientTransform="translate(-2376.77 2704.05) scale(14.27 -14.27)" xlink:href="#radial-gradient"></radialGradient></defs><g id="Layer_1-2"><path class="cls-1" d="M155.25,41.14v-.36c0-.27-.09-.67-.16-1.27,0-.04,0-.08,0-.12h0v-.05c0-.06,0-.13,0-.19v.14c0-.12,.02-.25,.05-.37l.59,.58c2.1,2.07,4.4,3.93,6.86,5.56,1.02,.64,2.1,1.18,3.23,1.62,.94,.34,1.94,.49,2.93,.43,1-.06,1.97-.32,2.87-.77,2.34-1.12,4.46-2.66,6.24-4.55,.66-.66,1.3-1.35,1.93-2,.42-.47,.41-.64-.15-.87-.97-.45-1.97-.81-3-1.1-2.72-.72-5.39-1.61-8-2.67-1.38-.54-2.84-.93-4.27-1.37-.33-.06-.66-.11-1-.13,.7-.81,1.35-1.55,2-2.33,2.09-2.47,3.7-5.29,4.77-8.34,1.24-3.73,1.05-7.78-.52-11.38-.72-1.79-1.61-3.51-2.4-5.29-.44-1-.81-2.09-1.23-3.13-.07-.16-.27-.43-.36-.42-.2,.06-.37,.2-.48,.38-.87,1.31-1.85,2.53-2.95,3.65-1.55,1.75-3,3.56-4.5,5.34l-.12,.07c-.36-.84-.72-1.69-1.1-2.5-1.5-3.05-3.37-5.89-5.59-8.46-.18-.2-.34-.39-.64-.16-2.14,1.55-3.75,3.72-4.61,6.21,.6-.91,1.16-1.91,1.86-2.81,.78-.95,1.61-1.85,2.49-2.7,.38-.38,.61-.35,.92,.08,1.25,1.69,2.61,3.33,3.69,5.13,.97,1.77,1.84,3.6,2.61,5.47,.06,.22,.04,.46-.06,.67-.93,1.91-1.55,3.96-1.85,6.06-.19,2.39,.07,4.79,.76,7.08,.68,1.91,.81,3.96,.37,5.94-.34,1.18-1.04,2.23-2,3-.09,.32-.18,.62-.62,.51s-.89-.2-1.1,.23c-.12,.26,0,.67,.07,1.17-.91,.92-1.95,1.7-3.1,2.3-2.2,1.38-4.39,2.8-6.59,4.19-.44,.28-.9,.53-1.35,.79-.09,.08-.18,.17-.25,.27l-1.06,.29c-1.34,.46-2.76,.64-4.18,.53-1.41-.11-2.79-.5-4.04-1.16-1.37-.8-2.68-1.7-3.9-2.71-.85-.62-1.62-1.34-2.48-2.07,.75-.67,1.59-1.22,2.51-1.63,1.26-.57,2.62-.86,3.99-.87,1.38,0,2.74,.27,4.01,.82,1.3,.62,2.71,.96,4.15,1,1.45-.02,2.89-.16,4.31-.42,1.34-.33,2.65-.76,3.92-1.29,.38-.13,.78-.13,1.16,0,.68,.17,1.37,.29,2.06,.36,.07,0,.15-.01,.21-.04,.07-.03,.12-.08,.17-.14,.02-.07,.02-.14,0-.21-.02-.07-.05-.13-.1-.19-.27-.24-.59-.41-.94-.51-.45-.08-.92-.05-1.36,.08-.21,.07-.43,.09-.64,.06-.22-.03-.42-.11-.6-.23-1.44-.8-2.91-1.51-4.29-2.39-2.17-1.32-4.08-3.04-5.62-5.07-.79-1.07-1.52-2.19-2.18-3.34-.93-1.91-1.24-4.07-.87-6.16,.26-2.08,.77-4.11,1.52-6.07,.37-1.08,.58-2.21,.86-3.3l.1-.34c2.53,1.1,5.05,2.11,7.5,3.31,2.03,1.03,3.78,2.53,5.11,4.37,1.79,2.39,2.93,5.22,3.28,8.19,.2,1.9,.06,3.83-.42,5.68-.16,.8-.23,1.61-.23,2.42-.03,.27,.02,.55,.13,.8,.11,.25,.29,.47,.51,.63-.8-1.37-.36-2.77-.05-4.15,.58-2.15,.72-4.39,.41-6.6-1-5.59-3.81-9.89-9-12.43-1.95-1-4-1.66-6-2.49-.44-.17-.86-.36-1.27-.54-.41-.18-.58-.13-.65,.43-.12,.91-.29,1.81-.5,2.7-.41,1.54-1,3-1.36,4.59-.43,1.97-.61,3.99-.52,6,.14,1.72,.73,3.38,1.72,4.8,1.76,2.84,4.22,5.18,7.14,6.8,1.47,.83,3,1.54,4.49,2.32l.36,.2c-1.87,.81-3.83,1.38-5.84,1.69-2.35,.29-4.74-.05-6.92-1-1.38-.59-2.87-.85-4.36-.76-1.49,.09-2.95,.52-4.25,1.26-.71,.46-1.38,.98-2,1.55-.2,.17-.27,.35,0,.58,1.3,1.11,2.57,2.25,3.86,3.36,1.93,1.73,4.41,2.72,7,2.79,1.88,.09,3.76-.35,5.41-1.26,.84-.48,1.7-.95,2.54-1.46,1.55-1,3.13-1.93,4.65-3,1.52-1.07,2.83-2.07,4.26-3.12,.44,.36,1,.78,1.47,1.25h.06c0-.2,0-.39-.07-.52-.39-.38-.81-.76-1.24-1.15l.83-.85c.24,.72,.44,1.33,.65,1.93l-.17,.12c0,.19,.06,.42,.1,.63,.06,.12,.1,.24,.12,.37,.3,2.5,.07,1-.12-.37-.03-.04-.06-.09-.09-.14,0,.05,0,.09,0,.14m-2.69-1.59l-2-.27c.82-.53,1.45-.46,1.87,.21l.13,.06Zm1.08-.38c-.07-.34-.1-.58-.14-.8,.25,0,.52-.07,.78-.1,.01,.06,.03,.12,.05,.17l-.69,.73Zm3.64-9c-.3-1.32-.64-2.62-.9-3.94-.4-1.95-.4-3.97,0-5.92,.32-1.58,.88-3.1,1.66-4.51,.96,3.01,1.47,6.14,1.5,9.3,.07,3.57-1.16,7.62-2.22,9,.24-1.34,.19-2.72-.17-4.03l.13,.1Zm22.16,12c-1.23,1.77-2.77,3.29-4.55,4.5-1.64,1.2-3.59,1.9-5.62,2-2.48,.01-4.89-.8-6.85-2.31-2.35-1.75-4.56-3.7-6.8-5.57-.09-.11-.16-.25-.18-.4-.17-.65-.32-1.33-.47-2q-.1,0-.07-.07l.23-.27c2.77-3.06,4.4-6.98,4.63-11.1,.26-3.72-.2-7.46-1.36-11-.1-.21-.13-.45-.09-.68,.03-.23,.14-.45,.29-.63,.87-1.06,1.68-2.15,2.58-3.17,1.54-1.73,3.12-3.42,4.7-5.14,0,.11,.1,.17,.13,.25,.8,1.81,1.58,3.63,2.41,5.41,.97,1.84,1.64,3.81,2,5.86,.47,3.55-.1,7.17-1.66,10.4-1.37,2.85-3.25,5.42-5.53,7.61-.15,.13-.34,.2-.54,.19-1.05,0-2.12-.1-3.16,0-1.02,.14-2.03,.39-3,.75-.7,.24-.73,.74-.12,1.12,.49,.3,1.03,.51,1.59,.62,.85,.12,1.71,.04,2.52-.24,.81-.28,1.54-.75,2.14-1.37,.22-.24,.51-.42,.83-.5,.32-.09,.65-.08,.97,.01,1.3,.32,2.58,.73,3.83,1.2,3.06,1.37,6.22,2.5,9.46,3.37,.61,.22,1.2,.49,1.76,.81-.05,.1-.12,.2-.2,.28l.13,.07Zm-16.68-5.88c-.81,.83-1.81,1.46-2.91,1.82-.99,.33-2.06,.26-3-.19-.2-.1-.47-.33-.48-.51,0-.18,.28-.41,.48-.5,1.81-.83,3.78-.63,5.91-.62Z"></path><path class="cls-8" d="M155.25,41.14v-.36c0-.27-.09-.67-.16-1.27,0-.04,0-.08,0-.12h0v-.05c0-.06,0-.13,0-.19v.14c0-.12,.02-.25,.05-.37l.59,.58c2.1,2.07,4.4,3.93,6.86,5.56,1.02,.64,2.1,1.18,3.23,1.62,.94,.34,1.94,.49,2.93,.43,1-.06,1.97-.32,2.87-.77,2.34-1.12,4.46-2.66,6.24-4.55,.66-.66,1.3-1.35,1.93-2,.42-.47,.41-.64-.15-.87-.97-.45-1.97-.81-3-1.1-2.72-.72-5.39-1.61-8-2.67-1.38-.54-2.84-.93-4.27-1.37-.33-.06-.66-.11-1-.13,.7-.81,1.35-1.55,2-2.33,2.09-2.47,3.7-5.29,4.77-8.34,1.24-3.73,1.05-7.78-.52-11.38-.72-1.79-1.61-3.51-2.4-5.29-.44-1-.81-2.09-1.23-3.13-.07-.16-.27-.43-.36-.42-.2,.06-.37,.2-.48,.38-.87,1.31-1.85,2.53-2.95,3.65-1.55,1.75-3,3.56-4.5,5.34l-.12,.07c-.36-.84-.72-1.69-1.1-2.5-1.5-3.05-3.37-5.89-5.59-8.46-.18-.2-.34-.39-.64-.16-2.14,1.55-3.75,3.72-4.61,6.21,.6-.91,1.16-1.91,1.86-2.81,.78-.95,1.61-1.85,2.49-2.7,.38-.38,.61-.35,.92,.08,1.25,1.69,2.61,3.33,3.69,5.13,.97,1.77,1.84,3.6,2.61,5.47,.06,.22,.04,.46-.06,.67-.93,1.91-1.55,3.96-1.85,6.06-.19,2.39,.07,4.79,.76,7.08,.68,1.91,.81,3.96,.37,5.94-.34,1.18-1.04,2.23-2,3-.09,.32-.18,.62-.62,.51s-.89-.2-1.1,.23c-.12,.26,0,.67,.07,1.17-.91,.92-1.95,1.7-3.1,2.3-2.2,1.38-4.39,2.8-6.59,4.19-.44,.28-.9,.53-1.35,.79-.09,.08-.18,.17-.25,.27l-1.06,.29c-1.34,.46-2.76,.64-4.18,.53-1.41-.11-2.79-.5-4.04-1.16-1.37-.8-2.68-1.7-3.9-2.71-.85-.62-1.62-1.34-2.48-2.07,.75-.67,1.59-1.22,2.51-1.63,1.26-.57,2.62-.86,3.99-.87,1.38,0,2.74,.27,4.01,.82,1.3,.62,2.71,.96,4.15,1,1.45-.02,2.89-.16,4.31-.42,1.34-.33,2.65-.76,3.92-1.29,.38-.13,.78-.13,1.16,0,.68,.17,1.37,.29,2.06,.36,.07,0,.15-.01,.21-.04,.07-.03,.12-.08,.17-.14,.02-.07,.02-.14,0-.21-.02-.07-.05-.13-.1-.19-.27-.24-.59-.41-.94-.51-.45-.08-.92-.05-1.36,.08-.21,.07-.43,.09-.64,.06-.22-.03-.42-.11-.6-.23-1.44-.8-2.91-1.51-4.29-2.39-2.17-1.32-4.08-3.04-5.62-5.07-.79-1.07-1.52-2.19-2.18-3.34-.93-1.91-1.24-4.07-.87-6.16,.26-2.08,.77-4.11,1.52-6.07,.37-1.08,.58-2.21,.86-3.3l.1-.34c2.53,1.1,5.05,2.11,7.5,3.31,2.03,1.03,3.78,2.53,5.11,4.37,1.79,2.39,2.93,5.22,3.28,8.19,.2,1.9,.06,3.83-.42,5.68-.16,.8-.23,1.61-.23,2.42-.03,.27,.02,.55,.13,.8,.11,.25,.29,.47,.51,.63-.8-1.37-.36-2.77-.05-4.15,.58-2.15,.72-4.39,.41-6.6-1-5.59-3.81-9.89-9-12.43-1.95-1-4-1.66-6-2.49-.44-.17-.86-.36-1.27-.54-.41-.18-.58-.13-.65,.43-.12,.91-.29,1.81-.5,2.7-.41,1.54-1,3-1.36,4.59-.43,1.97-.61,3.99-.52,6,.14,1.72,.73,3.38,1.72,4.8,1.76,2.84,4.22,5.18,7.14,6.8,1.47,.83,3,1.54,4.49,2.32l.36,.2c-1.87,.81-3.83,1.38-5.84,1.69-2.35,.29-4.74-.05-6.92-1-1.38-.59-2.87-.85-4.36-.76-1.49,.09-2.95,.52-4.25,1.26-.71,.46-1.38,.98-2,1.55-.2,.17-.27,.35,0,.58,1.3,1.11,2.57,2.25,3.86,3.36,1.93,1.73,4.41,2.72,7,2.79,1.88,.09,3.76-.35,5.41-1.26,.84-.48,1.7-.95,2.54-1.46,1.55-1,3.13-1.93,4.65-3,1.52-1.07,2.83-2.07,4.26-3.12,.44,.36,1,.78,1.47,1.25h.06c0-.2,0-.39-.07-.52-.39-.38-.81-.76-1.24-1.15l.83-.85c.24,.72,.44,1.33,.65,1.93l-.17,.12c0,.19,.06,.42,.1,.63,.06,.12,.1,.24,.12,.37,.3,2.5,.07,1-.12-.37-.03-.04-.06-.09-.09-.14,0,.05,0,.09,0,.14m-2.69-1.59l-2-.27c.82-.53,1.45-.46,1.87,.21l.13,.06Zm1.08-.38c-.07-.34-.1-.58-.14-.8,.25,0,.52-.07,.78-.1,.01,.06,.03,.12,.05,.17l-.69,.73Zm3.64-9c-.3-1.32-.64-2.62-.9-3.94-.4-1.95-.4-3.97,0-5.92,.32-1.58,.88-3.1,1.66-4.51,.96,3.01,1.47,6.14,1.5,9.3,.07,3.57-1.16,7.62-2.22,9,.24-1.34,.19-2.72-.17-4.03l.13,.1Zm22.16,12c-1.23,1.77-2.77,3.29-4.55,4.5-1.64,1.2-3.59,1.9-5.62,2-2.48,.01-4.89-.8-6.85-2.31-2.35-1.75-4.56-3.7-6.8-5.57-.09-.11-.16-.25-.18-.4-.17-.65-.32-1.33-.47-2q-.1,0-.07-.07l.23-.27c2.77-3.06,4.4-6.98,4.63-11.1,.26-3.72-.2-7.46-1.36-11-.1-.21-.13-.45-.09-.68,.03-.23,.14-.45,.29-.63,.87-1.06,1.68-2.15,2.58-3.17,1.54-1.73,3.12-3.42,4.7-5.14,0,.11,.1,.17,.13,.25,.8,1.81,1.58,3.63,2.41,5.41,.97,1.84,1.64,3.81,2,5.86,.47,3.55-.1,7.17-1.66,10.4-1.37,2.85-3.25,5.42-5.53,7.61-.15,.13-.34,.2-.54,.19-1.05,0-2.12-.1-3.16,0-1.02,.14-2.03,.39-3,.75-.7,.24-.73,.74-.12,1.12,.49,.3,1.03,.51,1.59,.62,.85,.12,1.71,.04,2.52-.24,.81-.28,1.54-.75,2.14-1.37,.22-.24,.51-.42,.83-.5,.32-.09,.65-.08,.97,.01,1.3,.32,2.58,.73,3.83,1.2,3.06,1.37,6.22,2.5,9.46,3.37,.61,.22,1.2,.49,1.76,.81-.05,.1-.12,.2-.2,.28l.13,.07Zm-16.68-5.88c-.81,.83-1.81,1.46-2.91,1.82-.99,.33-2.06,.26-3-.19-.2-.1-.47-.33-.48-.51,0-.18,.28-.41,.48-.5,1.81-.83,3.78-.63,5.91-.62Z"></path><path class="cls-7" d="M12.42,90.18c-1.97,0-3.93-.27-5.82-.81-1.81-.48-3.45-1.45-4.73-2.81-1.3-1.5-1.97-3.45-1.86-5.44,0-.45,.19-.67,.57-.67s.58,.25,.58,.76c-.04,.67,.07,1.33,.32,1.95,.25,.62,.63,1.18,1.11,1.63,.98,.87,2.16,1.49,3.43,1.81,1.18,.33,2.4,.51,3.63,.53h2c.61,0,1.32-.08,2-.14,3.6-.48,7.08-1.63,10.26-3.39,3.18-1.78,6.13-3.94,8.78-6.44,2.7-2.55,5.27-5.24,7.68-8.07l7-8.15c.89-1.08,2-2.39,3.29-3.92l3.91-4.58c1.33-1.53,2.43-2.81,3.3-3.82-4.9,1.21-9.99,2.71-15.27,4.49-5.11,1.73-10.34,3.07-15.65,4-.92,.14-1.83,.33-2.73,.57-.88,.25-1.79,.37-2.71,.38-1.12-.01-2.21-.34-3.15-.95-.85-.59-1.57-1.36-2.1-2.25-.62-.88-.97-1.92-1-3,.07-.53,.26-1.03,.56-1.47,.3-.44,.69-.8,1.16-1.06,1.36-.99,2.82-1.86,4.34-2.58,1.8-.88,3.65-1.64,5.54-2.29,1.94-.67,3.73-1.2,5.39-1.62,1.21-.35,2.46-.56,3.72-.62,.77,0,1.15,.13,1.15,.38s-.45,.54-1.34,.67-2.2,.51-3.72,1c-1.52,.49-3.1,1-4.73,1.58-1.63,.58-3.1,1.23-4.43,1.86-1.35,.56-2.6,1.35-3.68,2.34-.67,.56-1.1,1.37-1.19,2.24,0,1.27,1.18,1.91,3.53,1.91,.32,0,.64,0,1-.05s.66-.08,1-.14c4.07-.67,8.16-1.51,12.26-2.53,4.1-1.02,8.16-2.09,12.17-3.2,3.89-1.06,7.84-1.89,11.83-2.48l4.2-4.58c3.18-3.5,6.18-6.95,9-10.36,2.82-3.41,5.86-6.82,9.11-10.25,.95-.94,1.82-1.96,2.58-3.06,.75-1.07,1.58-2.09,2.48-3.05,.9,.43,1.87,.7,2.86,.81,.89,.07,1.76,.28,2.58,.62,.42,.23,.79,.55,1.05,.95,.27,.4,.43,.86,.48,1.34,.1,.89-.03,1.79-.38,2.62-.28,.83-.66,1.62-1.15,2.34-1.21,1.85-2.5,3.9-3.87,6.16-1.36,2.26-2.72,4.5-4,6.73s-2.53,4.23-3.58,6c-1.05,1.77-1.83,3.12-2.34,4,.8,.3,1.57,.68,2.29,1.14,.8,.49,1.52,1.08,2.15,1.77,.28,.29,.5,.65,.62,1.04,.12,.39,.16,.8,.1,1.2,.38,.33,.69,.74,.9,1.2,.21,.46,.32,.96,.33,1.47-.05,.41-.2,.81-.43,1.16-.23,.35-.54,.64-.9,.84-1.01,.75-2.06,1.44-3.15,2.06-1.21,.7-2.35,1.39-3.43,2.1-.07,.06-.15,.01-.24-.15-.1-.15-.12-.27,0-.33,.89-.7,2-1.62,3.19-2.77,.64-.63,1.14-1.39,1.46-2.23,.32-.84,.46-1.74,.41-2.64-.01-.5-.14-1-.36-1.45-.22-.45-.54-.85-.93-1.17-.79-.75-1.72-1.35-2.72-1.77-1.92,3.46-3.56,7.07-4.92,10.79-1.29,3.43-2.36,6.93-3.19,10.5-.07,.51-.15,1-.24,1.52-.1,.5-.15,1.02-.15,1.53,0,.7,.12,1.39,.34,2.05,.09,.34,.3,.64,.58,.84,.29,.2,.64,.29,.99,.26,1.47-.09,2.84-.76,3.82-1.86,1.06-1,2.02-2.1,2.86-3.29,.21-.28,.47-.5,.77-.67,.25-.13,.28,0,.09,.47-.13,.35-.29,.68-.48,1l-.57,1c-.5,.7-.94,1.44-1.33,2.2-.49,.91-1.06,1.77-1.72,2.57-.25,.35-.58,.63-.97,.83-.38,.2-.8,.31-1.23,.32-.78-.09-1.53-.37-2.19-.81-.8-.44-1.56-.93-2.29-1.48-.61-.57-1.09-1.27-1.39-2.05-.31-.73-.54-1.48-.71-2.25,0-.19-.02-.38-.05-.57-.02-.22-.02-.45,0-.67,.06-2.22,.45-4.42,1.15-6.53,.76-2.51,1.72-5.19,2.86-8,1.14-2.81,2.29-5.61,3.44-8.35h-1c-.36,0-.63-.05-1-.05-1.84,0-3.67,.15-5.49,.43-1.81,.29-3.64,.62-5.49,1-2.23,2.73-4.74,5.93-7.54,9.59-2.8,3.66-5.8,7.38-9,11.16-3.14,3.72-6.52,7.22-10.11,10.5-3.26,3.02-6.87,5.64-10.74,7.83-3.3,1.85-7.02,2.83-10.81,2.83ZM62.71,45.35c1.47-.19,2.87-.32,4.2-.38,1.33-.06,2.71-.1,4.1-.1h3.16c.44-.95,1.25-2.47,2.43-4.58,1.18-2.11,2.51-4.4,4-6.87,1.46-2.48,2.86-4.81,4.2-7,1.34-2.19,2.39-3.81,3.15-4.86,.34-.45,.57-.97,.66-1.53,0-.45-.36-.49-1.09-.15-.88,.46-1.7,1.02-2.44,1.68-1.33,1.14-3,2.78-5,4.91-2,2.13-4.19,4.42-6.45,6.87-2.26,2.45-4.36,4.76-6.29,6.92s-3.55,3.86-4.63,5.09Z"></path><path class="cls-5" d="M90.45,76.44c-.94,.01-1.87-.18-2.74-.55-.86-.38-1.63-.94-2.26-1.64-1.41-1.64-2.13-3.76-2-5.92,.04-2.03,.46-4.04,1.24-5.92,.98-2.27,2.25-4.4,3.77-6.35,1.45-1.91,3.17-3.59,5.11-5,1.56-1.2,3.47-1.88,5.44-1.95,1.25,0,2.47,.35,3.53,1,.55,.3,.97,.79,1.2,1.38,.23,.58,.24,1.23,.04,1.82-.03,.08-.07,.16-.13,.23-.06,.07-.13,.12-.21,.15-.15,.06-.23,.06-.23,0-.19-.6-.57-1.12-1.1-1.46-.52-.35-1.15-.51-1.77-.45-.92,.03-1.82,.33-2.57,.86-1.84,1.38-3.51,2.97-5,4.72-1.49,1.71-2.83,3.54-4,5.49-.97,1.57-1.7,3.28-2.19,5.06-.13,.63-.24,1.19-.33,1.67-.1,.49-.15,.98-.15,1.48-.06,.62,.02,1.25,.23,1.84,.22,.59,.56,1.11,1.02,1.54,.85,.68,1.91,1.04,3,1,1.86,0,3.67-.6,5.16-1.71,1.43-1.11,2.74-2.35,3.91-3.72,1.28-1.48,2.45-3.05,3.53-4.68,.19-.32,.38-.48,.57-.48,.07,0,.1,.07,.1,.19-.05,.36-.18,.7-.38,1-.96,1.4-2.04,2.91-3.25,4.53-1.11,1.54-2.46,2.89-4,4-.83,.61-1.75,1.09-2.72,1.43-.91,.31-1.86,.46-2.82,.44Z"></path><path class="cls-4" d="M132.95,82.45c-1.72,0-2.86-.52-3.44-1.57-.54-.94-.84-2.01-.86-3.1,.02-1.78,.36-3.55,1-5.21,.67-1.81,1.41-3.6,2.24-5.39,1.46-2.99,2.61-5.25,3.44-6.77,.82-1.53,1.41-2.67,1.76-3.44,.33-.65,.51-1.37,.53-2.1,0-.63-.16-1-.48-1.24-.3-.19-.65-.28-1-.28-.55,.03-1.08,.21-1.53,.52-.59,.36-1.13,.8-1.62,1.29-1.27,1.37-2.45,2.82-3.54,4.34-1.27,1.75-2.49,3.57-3.67,5.44-1.18,1.87-2.18,3.58-3,5.11-.86,1.52-1.45,2.61-1.77,3.24-.57,1.15-1.24,1.72-2,1.72s-1.82-.64-2.77-1.91c.44-1.02,.95-2.18,1.53-3.48,.57-1.31,1.14-2.66,1.71-4.06,.76-1.78,1.43-3.59,2-5.44,.54-1.61,.85-3.3,.91-5,0-1.33-.33-2-1-2-.58,0-1.34,.48-2.29,1.44-1.2,1.17-2.3,2.43-3.3,3.77-1.33,1.68-2.67,3.54-4,5.58-1.33,2-2.5,4-3.48,5.87-.82,1.45-1.45,3.01-1.86,4.63-.07,.16-.2,.29-.35,.38-.15,.08-.33,.12-.51,.09-.67-.04-1.31-.31-1.81-.76-.34-.31-.59-.7-.74-1.13-.15-.43-.19-.9-.12-1.35,.18-.74,.43-1.46,.76-2.15,.51-1.24,1.13-2.69,1.86-4.34l2.15-4.87c.7-1.59,1.27-2.86,1.72-3.81-.45-.39-.69-.67-.72-.87-.04-.19-.04-.38,0-.57,.32-.47,.61-.97,.86-1.48l1.14-2.19c.27-.47,.5-.97,.67-1.48,.25-.13,.78-.33,1.58-.62,.75-.28,1.53-.43,2.33-.43h.38c.77,0,1.15,.22,1.15,.67-.06,.62-.29,1.21-.67,1.71-.19,.33-.6,1.07-1.24,2.25l-2.19,4.06c-.83,1.52-1.58,2.97-2.25,4.34-.66,1.36-1.16,2.43-1.47,3.19-.32,.69-.42,1.45-.29,2.2,1.27-2.1,2.79-4.43,4.58-7,1.68-2.45,3.57-4.76,5.63-6.91,.29-.4,.66-.72,1.09-.95,.43-.23,.9-.36,1.39-.39,.69-.06,1.4,.01,2.06,.22,.66,.21,1.28,.56,1.81,1.02,.37,.36,.67,.79,.87,1.27,.2,.48,.31,.99,.32,1.5-.04,1.45-.38,2.88-1,4.19l-1.34,3.39c-.63,1.63-1.27,3.2-1.9,4.73l3.58-5.06c1.42-2,2.92-4.06,4.48-6.06s3-3.67,4.25-5c1.25-1.33,2.19-2,2.77-2,1.4,0,2.74,.53,3.76,1.48,1.12,1,1.67,1.82,1.67,2.52-.14,1.43-.63,2.81-1.43,4-1,1.66-2.54,4.26-4.77,7.83-1.27,2.04-2.52,4.31-3.77,6.82-1.11,2.01-1.74,4.25-1.86,6.54,0,1.65,.48,2.48,1.43,2.48,.69-.05,1.34-.36,1.82-.86,.44-.38,.89-.8,1.33-1.24,.41-.42,.86-.8,1.34-1.14-.42,.99-.97,1.92-1.63,2.76-.26,.34-.6,.62-.99,.8-.39,.18-.81,.27-1.24,.26h0Z"></path><path class="cls-6" d="M110.62,114.8c-.88-.01-1.76-.09-2.63-.24-.9-.14-1.78-.38-2.62-.72-.45-.19-.57-.38-.38-.57,.08-.09,.19-.15,.32-.17,.12-.02,.25,0,.35,.07,.69,.25,1.41,.42,2.14,.48,.74,.06,1.48,.1,2.25,.1,2.21-.07,4.37-.73,6.25-1.91,2.4-1.44,4.64-3.13,6.68-5.06,2.33-2.17,4.54-4.47,6.63-6.87,3-3.45,5.73-7.13,8.16-11,2.63-4.14,5.03-8.43,7.2-12.83,2.01-4.03,3.78-8.17,5.3-12.41,1.21-3.16,1.99-6.47,2.34-9.83-1.59,2.49-3,4.76-4.34,6.83s-2.85,4.37-4.63,6.91c-.19,.26-.35,.39-.48,.39-.06,0-.11-.11-.14-.34-.04-.17-.03-.36,.05-.52,1.71-2.31,3.25-4.74,4.63-7.26,1.4-2.56,2.59-5.24,3.53-8,.92-2.7,1.35-11.14,1.29-13.68,.23-.07,.47-.1,.71-.1h.62c2.23,0,2.17,1,2.17,2.88,0,.76-1.08,5.28-1.37,6.69-.24,1.31-.55,2.61-.93,3.89-.31,.66-.52,1.37-.63,2.09,.03,.55,.13,1.09,.28,1.62,.07,.63,.1,1.27,.1,1.91-.02,1.6-.16,3.19-.43,4.77-.37,2.16-.87,4.3-1.48,6.4,1.54-3.2,3.34-6.26,5.39-9.16,1.79-2.61,3.88-5.02,6.21-7.16,2.06-1.85,3.83-2.77,5.29-2.77,.97,.01,1.9,.37,2.63,1,.78,.6,1.46,1.32,2,2.14,.46,.63,.72,1.38,.77,2.15-.08,2.36-.81,4.65-2.1,6.63-1.48,2.42-3.3,4.63-5.4,6.54-2.06,1.94-4.37,3.59-6.87,4.91-1.99,1.14-4.23,1.78-6.53,1.87-.4,0-.81-.05-1.2-.15-.68-.29-1.26-.77-1.67-1.38l-.48,1.15c-2.35,5.15-4.91,10.31-7.68,15.46-2.68,4.98-5.93,9.64-9.67,13.89-3.01,3.44-6.57,6.36-10.54,8.63-3.41,1.82-7.22,2.76-11.09,2.73h0Zm40-42.67c1.13,0,2.25-.25,3.29-.71,.9-.37,1.78-.8,2.62-1.29,2-1.18,3.88-2.57,5.59-4.15,1.92-1.74,3.69-3.64,5.29-5.68,1.43-1.76,2.59-3.72,3.44-5.82,.17-.56,.26-1.14,.28-1.72,0-1.59-.7-2.38-2.1-2.38-.96,.07-1.88,.4-2.67,.95-1.02,.69-1.98,1.48-2.86,2.34-1,.92-1.81,1.8-2.58,2.63-1.59,1.74-3.07,3.57-4.44,5.48-1.34,1.86-2.58,3.78-3.72,5.77-.87,1.45-1.59,2.99-2.15,4.58h.01Z"></path><path class="cls-2" d="M177.42,76.06c-.64,0-1.27-.18-1.81-.54-.54-.36-.95-.86-1.19-1.46-.59-1.04-.93-2.2-1-3.39,.05-2.47,.74-4.88,2-7,1.39-2.5,3.11-4.81,5.1-6.87,1.92-2.05,4.12-3.82,6.54-5.25,1.92-1.22,4.13-1.91,6.4-2,.71,.05,1.38,.3,1.95,.72,.84,.59,1.54,1.36,2.05,2.24,.2,.24,.36,.52,.48,.81,.09,.17,.14,.36,.14,.55s-.05,.38-.14,.55l-.09-.19c-.18-.37-.48-.65-.86-.81-.63-.26-1.32-.37-2-.34-1.74,.08-3.43,.61-4.91,1.53-1.97,1.14-3.8,2.52-5.44,4.1-1.82,1.72-3.46,3.61-4.92,5.64-1.39,1.89-2.48,3.98-3.24,6.2-.4,.87-.63,1.81-.67,2.76,0,.96,.33,1.44,1,1.44,.67-.07,1.3-.33,1.81-.76,1.51-1.18,2.92-2.49,4.2-3.92,1.46-1.59,2.88-3.26,4.25-5s2.58-3.33,3.62-4.77c1.06-1.46,1.8-2.55,2.25-3.25,.08-.12,.19-.21,.31-.29s.26-.12,.4-.14c.37-.04,.73-.05,1.1-.05,1.27,0,2.08,.21,2.43,.63,.17,.17,.27,.39,.28,.63,0,.24-.07,.47-.23,.65-.83,1.22-1.7,2.61-2.62,4.2-.89,1.51-1.68,3.07-2.39,4.68-.61,1.28-.95,2.68-1,4.1,0,1,.38,1.43,1.14,1.43,.9-.1,1.72-.54,2.29-1.24,.99-.94,1.9-1.96,2.72-3.05,1.05-1.33,2.1-2.73,3.15-4.2,1.06-1.46,1.93-2.73,2.63-3.82,.25-.31,.46-.46,.62-.43,.16,.03,.14,.24,0,.63l-3.15,4.91c-1.05,1.64-2.2,3.21-3.43,4.72-2.3,2.93-4,4.39-5.16,4.39-1.03,0-2.03-.33-2.86-.95-.44-.31-.79-.73-1.03-1.21-.23-.48-.34-1.02-.32-1.56,.04-1.51,.32-3.01,.81-4.44,.42-1.36,.91-2.7,1.48-4-1.4,2.13-2.93,4.17-4.58,6.11-1.49,1.81-3.1,3.51-4.82,5.11-1.47,1.49-2.6,2.2-3.3,2.2Z"></path><path class="cls-3" d="M69.88,101.52h5.33v1.27h-5.33v-1.27Zm.15,5.45h-1.48v-10.34h7.3v1.28h-5.82v9.05Zm8.78,0v-10.34h4.03c.91,0,1.68,.14,2.32,.43,.64,.29,1.13,.7,1.48,1.24,.34,.54,.52,1.19,.52,1.93s-.17,1.39-.52,1.93c-.34,.53-.84,.94-1.48,1.23-.64,.28-1.41,.43-2.32,.43h-3.22l.66-.68v3.82h-1.48Zm6.91,0l-2.63-3.75h1.58l2.66,3.75h-1.61Zm-5.44-3.68l-.66-.72h3.18c.95,0,1.66-.2,2.14-.61,.49-.41,.74-.99,.74-1.73s-.25-1.31-.74-1.71c-.48-.4-1.2-.61-2.14-.61h-3.18l.66-.74v6.11Zm11.48-2.2h5.32v1.25h-5.32v-1.25Zm.13,4.59h6.03v1.29h-7.5v-10.34h7.3v1.28h-5.82v7.77Zm12.32,1.4c-.79,0-1.54-.12-2.26-.35-.72-.25-1.28-.56-1.7-.95l.55-1.15c.39,.35,.9,.63,1.51,.86,.61,.23,1.25,.34,1.9,.34,.6,0,1.09-.07,1.46-.21s.65-.32,.83-.56c.18-.25,.27-.52,.27-.83,0-.35-.12-.64-.35-.86-.23-.22-.53-.39-.9-.52-.36-.14-.77-.26-1.21-.35-.44-.1-.89-.21-1.34-.34-.44-.14-.85-.31-1.23-.52-.36-.21-.66-.48-.89-.83-.23-.36-.34-.81-.34-1.36s.14-1.02,.41-1.46c.29-.45,.72-.81,1.3-1.08,.59-.28,1.34-.41,2.24-.41,.6,0,1.2,.08,1.79,.24,.59,.16,1.1,.38,1.54,.68l-.49,1.18c-.44-.3-.91-.51-1.4-.64-.49-.14-.97-.21-1.43-.21-.58,0-1.06,.07-1.43,.22-.37,.15-.65,.34-.83,.59-.17,.25-.25,.52-.25,.83,0,.36,.11,.66,.34,.87,.24,.22,.54,.39,.9,.52,.37,.13,.78,.25,1.23,.36,.44,.1,.89,.21,1.33,.34,.45,.13,.86,.3,1.23,.5,.37,.21,.68,.48,.9,.83,.23,.34,.34,.79,.34,1.33s-.14,1.01-.43,1.46c-.28,.44-.73,.8-1.33,1.08-.59,.27-1.34,.4-2.25,.4Zm14.46-10.46h1.48v10.34h-1.48v-10.34Zm-5.94,10.34h-1.48v-10.34h1.48v10.34Zm6.07-4.61h-6.22v-1.28h6.22v1.28Zm21.21-.84h5.33v1.27h-5.33v-1.27Zm.15,5.45h-1.48v-10.34h7.3v1.28h-5.82v9.05Zm8.79,0v-10.34h1.48v9.05h5.6v1.29h-7.07Zm14.14,.12c-.79,0-1.52-.13-2.2-.4-.67-.26-1.25-.64-1.74-1.11-.49-.48-.88-1.04-1.15-1.68s-.41-1.34-.41-2.1,.14-1.46,.41-2.1c.28-.64,.66-1.2,1.15-1.67,.49-.48,1.07-.86,1.74-1.12,.67-.27,1.4-.4,2.2-.4s1.51,.13,2.17,.4c.67,.26,1.25,.63,1.74,1.11,.5,.47,.89,1.03,1.15,1.67,.28,.64,.41,1.34,.41,2.11s-.14,1.47-.41,2.11c-.27,.64-.65,1.2-1.15,1.68-.49,.47-1.07,.84-1.74,1.11-.66,.26-1.38,.38-2.17,.38Zm0-1.31c.57,0,1.1-.1,1.58-.3,.49-.2,.92-.47,1.27-.83,.36-.36,.64-.79,.84-1.27,.21-.48,.31-1.01,.31-1.58s-.1-1.1-.31-1.58c-.2-.48-.48-.9-.84-1.26-.35-.36-.78-.64-1.27-.84-.48-.2-1.01-.3-1.58-.3s-1.12,.1-1.61,.3c-.48,.2-.91,.48-1.27,.84-.36,.35-.65,.77-.86,1.26-.2,.48-.29,1.01-.29,1.58s.1,1.1,.29,1.58c.21,.48,.49,.91,.86,1.27,.36,.36,.79,.63,1.27,.83,.49,.2,1.03,.3,1.61,.3Zm10.68,1.2l-3.46-10.34h1.52l3.18,9.54h-.77l3.29-9.54h1.36l3.22,9.54h-.74l3.22-9.54h1.4l-3.46,10.34h-1.55l-3.01-8.85h.4l-3.03,8.85h-1.58Zm16.27-5.88h5.32v1.25h-5.32v-1.25Zm.13,4.59h6.03v1.29h-7.5v-10.34h7.3v1.28h-5.82v7.77Zm9.3,1.29v-10.34h4.03c.9,0,1.68,.14,2.32,.43,.64,.29,1.13,.7,1.48,1.24,.35,.54,.52,1.19,.52,1.93s-.17,1.39-.52,1.93c-.34,.53-.84,.94-1.48,1.23-.64,.28-1.41,.43-2.32,.43h-3.22l.66-.68v3.82h-1.48Zm6.91,0l-2.63-3.75h1.58l2.66,3.75h-1.61Zm-5.44-3.68l-.66-.72h3.18c.95,0,1.66-.2,2.14-.61,.49-.41,.74-.99,.74-1.73s-.25-1.31-.74-1.71c-.48-.4-1.2-.61-2.14-.61h-3.18l.66-.74v6.11Zm13.15,3.8c-.79,0-1.54-.12-2.26-.35-.72-.25-1.28-.56-1.7-.95l.55-1.15c.39,.35,.9,.63,1.51,.86,.61,.23,1.24,.34,1.9,.34,.6,0,1.09-.07,1.46-.21,.37-.14,.65-.32,.83-.56,.18-.25,.27-.52,.27-.83,0-.35-.12-.64-.35-.86-.23-.22-.53-.39-.9-.52-.37-.14-.77-.26-1.21-.35-.44-.1-.89-.21-1.35-.34-.44-.14-.85-.31-1.22-.52-.37-.21-.66-.48-.89-.83-.23-.36-.34-.81-.34-1.36s.14-1.02,.41-1.46c.29-.45,.72-.81,1.3-1.08,.59-.28,1.34-.41,2.24-.41,.6,0,1.2,.08,1.79,.24,.59,.16,1.1,.38,1.54,.68l-.49,1.18c-.44-.3-.91-.51-1.4-.64-.49-.14-.97-.21-1.43-.21-.58,0-1.06,.07-1.43,.22-.37,.15-.65,.34-.83,.59-.17,.25-.25,.52-.25,.83,0,.36,.11,.66,.34,.87,.24,.22,.54,.39,.9,.52,.37,.13,.78,.25,1.23,.36,.44,.1,.89,.21,1.33,.34,.45,.13,.86,.3,1.23,.5,.37,.21,.67,.48,.9,.83,.23,.34,.34,.79,.34,1.33s-.14,1.01-.43,1.46c-.28,.44-.73,.8-1.33,1.08-.59,.27-1.34,.4-2.24,.4Z"></path><path class="cls-3" d="M151.55,124.06c-.61,0-1.2-.09-1.76-.28-.56-.19-1-.44-1.32-.73l.42-.9c.31,.27,.7,.49,1.17,.67,.48,.18,.97,.26,1.48,.26,.47,0,.85-.05,1.14-.16,.29-.11,.5-.25,.64-.44,.14-.19,.21-.41,.21-.64,0-.28-.09-.5-.28-.67-.18-.17-.41-.3-.7-.4-.28-.11-.6-.2-.94-.28-.34-.08-.69-.17-1.04-.26-.35-.11-.66-.24-.95-.4-.28-.16-.51-.38-.69-.64-.18-.28-.26-.63-.26-1.06s.11-.79,.32-1.14c.22-.35,.56-.63,1.01-.84,.46-.22,1.04-.32,1.74-.32,.47,0,.93,.06,1.39,.18,.46,.12,.86,.3,1.19,.53l-.38,.92c-.35-.23-.71-.39-1.09-.49-.38-.11-.75-.16-1.11-.16-.45,0-.82,.06-1.11,.17-.29,.12-.51,.27-.64,.46-.13,.19-.19,.41-.19,.64,0,.28,.09,.51,.26,.68,.18,.17,.42,.3,.7,.4,.29,.1,.61,.19,.95,.28,.34,.08,.69,.16,1.03,.26,.35,.1,.67,.23,.95,.39,.29,.16,.52,.38,.7,.64,.18,.27,.26,.61,.26,1.03s-.11,.79-.33,1.14c-.22,.34-.57,.62-1.03,.84-.46,.21-1.04,.31-1.75,.31Zm4.79-.09v-8.04h1.15v8.04h-1.15Zm3.55,0v-8.04h.94l5.32,6.6h-.49v-6.6h1.15v8.04h-.94l-5.31-6.6h.49v6.6h-1.15Zm12.91,.09c-.61,0-1.18-.1-1.7-.3-.51-.21-.96-.49-1.34-.86-.38-.38-.67-.81-.88-1.31-.21-.5-.32-1.04-.32-1.64s.11-1.14,.32-1.64c.21-.5,.51-.93,.9-1.3,.38-.38,.83-.66,1.34-.86,.52-.21,1.09-.31,1.7-.31s1.19,.11,1.71,.32c.53,.21,.98,.52,1.34,.93l-.75,.72c-.31-.32-.65-.56-1.03-.71-.38-.16-.79-.24-1.23-.24s-.87,.08-1.26,.23c-.38,.15-.72,.37-1,.64-.28,.28-.51,.61-.67,.99-.15,.38-.23,.78-.23,1.23s.08,.86,.23,1.24c.16,.38,.38,.7,.67,.98,.28,.28,.62,.49,1,.64,.39,.15,.81,.23,1.26,.23s.85-.08,1.23-.23c.38-.16,.73-.41,1.03-.74l.75,.72c-.37,.41-.82,.73-1.34,.94-.52,.22-1.09,.32-1.72,.32Zm5.75-4.66h4.13v.98h-4.13v-.98Zm.1,3.57h4.68v1h-5.83v-8.04h5.67v1h-4.52v6.04Zm8.85,1v-.78l3.27-3.16c.29-.27,.51-.52,.64-.72,.14-.21,.24-.41,.29-.58,.05-.18,.08-.36,.08-.53,0-.41-.14-.74-.44-.98s-.72-.36-1.28-.36c-.43,0-.81,.07-1.16,.22-.34,.14-.64,.36-.9,.65l-.78-.68c.31-.39,.71-.69,1.23-.89,.52-.22,1.09-.32,1.71-.32,.56,0,1.04,.09,1.46,.28,.41,.18,.73,.43,.95,.77,.23,.34,.34,.74,.34,1.19,0,.26-.04,.52-.1,.77-.07,.25-.2,.52-.39,.8-.19,.28-.47,.6-.83,.95l-2.92,2.81-.28-.45h4.86v1h-5.77Zm9.99,.09c-.63,0-1.19-.16-1.69-.48-.49-.32-.88-.79-1.17-1.4-.28-.61-.43-1.36-.43-2.23s.14-1.62,.43-2.23c.29-.61,.68-1.08,1.17-1.4,.5-.32,1.06-.48,1.69-.48s1.18,.16,1.68,.48c.5,.32,.89,.79,1.17,1.4s.43,1.36,.43,2.23-.14,1.61-.43,2.23-.67,1.08-1.17,1.4c-.5,.32-1.06,.48-1.68,.48Zm0-1.02c.42,0,.79-.11,1.1-.34,.32-.23,.57-.57,.75-1.03,.18-.46,.27-1.03,.27-1.71s-.09-1.25-.27-1.71c-.18-.46-.43-.8-.75-1.03-.31-.23-.68-.34-1.1-.34s-.79,.12-1.11,.34c-.32,.23-.57,.57-.76,1.03-.18,.46-.26,1.03-.26,1.71s.09,1.25,.26,1.71c.18,.46,.44,.8,.76,1.03,.32,.23,.69,.34,1.11,.34Zm5.73,.93v-7.58l.49,.54h-2.31v-1h2.95v8.04h-1.14Zm6.03,.09c-.65,0-1.21-.1-1.69-.29-.47-.19-.84-.46-1.1-.82-.26-.36-.39-.78-.39-1.26s.12-.88,.37-1.2c.25-.34,.62-.59,1.09-.76,.47-.18,1.05-.26,1.72-.26s1.25,.09,1.72,.26c.48,.17,.85,.42,1.1,.76,.25,.34,.38,.74,.38,1.2s-.13,.9-.39,1.26c-.26,.35-.63,.62-1.11,.82-.48,.19-1.05,.29-1.7,.29Zm0-.93c.64,0,1.14-.13,1.5-.39,.37-.27,.55-.63,.55-1.08s-.18-.79-.55-1.04c-.36-.26-.86-.39-1.5-.39s-1.13,.13-1.49,.39c-.36,.25-.54,.6-.54,1.04s.18,.81,.54,1.08c.36,.26,.86,.39,1.49,.39Zm0-3.04c-.61,0-1.13-.08-1.56-.24-.43-.17-.76-.41-.99-.71-.23-.31-.34-.68-.34-1.11,0-.45,.12-.84,.36-1.16,.24-.33,.58-.58,1.02-.76,.44-.18,.94-.26,1.51-.26s1.09,.09,1.53,.26c.44,.18,.78,.43,1.02,.76,.24,.32,.37,.71,.37,1.16s-.12,.8-.34,1.11c-.23,.31-.56,.54-1,.71-.44,.16-.96,.24-1.57,.24Zm0-.74c.56,0,.99-.12,1.31-.34,.32-.23,.48-.54,.48-.94s-.17-.72-.49-.95c-.33-.23-.76-.34-1.3-.34s-.96,.11-1.29,.34c-.31,.23-.47,.55-.47,.95s.15,.71,.46,.94c.31,.23,.75,.34,1.3,.34Z"></path></g></svg>